<?xml version="1.0" encoding="UTF-8"?>
<svg width="256" height="256" viewBox="0 0 256 256" xmlns="http://www.w3.org/2000/svg">
  <rect x="20" y="20" width="216" height="216" rx="20" fill="#4A90D9"/>
  <rect x="50" y="50" width="80" height="156" rx="5" fill="white"/>
  <rect x="60" y="60" width="60" height="8" fill="#4A90D9"/>
  <rect x="60" y="75" width="60" height="8" fill="#4A90D9"/>
  <rect x="60" y="90" width="60" height="8" fill="#4A90D9"/>
  <rect x="60" y="105" width="60" height="8" fill="#4A90D9"/>
  <rect x="60" y="120" width="60" height="8" fill="#4A90D9"/>
  <path d="M145 128 L175 128 L160 108 Z" fill="white"/>
  <path d="M145 128 L175 128 L160 148 Z" fill="white"/>
  <rect x="190" y="80" width="46" height="96" rx="5" fill="white"/>
  <rect x="196" y="88" width="34" height="6" fill="#4A90D9"/>
  <rect x="196" y="100" width="34" height="6" fill="#4A90D9"/>
  <rect x="196" y="112" width="34" height="6" fill="#4A90D9"/>
  <rect x="196" y="124" width="34" height="6" fill="#4A90D9"/>
  <rect x="196" y="136" width="34" height="6" fill="#4A90D9"/>
  <rect x="196" y="148" width="34" height="6" fill="#4A90D9"/>
  <rect x="196" y="160" width="34" height="6" fill="#4A90D9"/>
</svg>
